# xmcd
#
# Track frame offsets: 
#        150
#        16135
#        26849
#        43050
#        53524
#        64991
#        73424
#        92955
#        108939
#        123085
#        135403
#        150894
#        163171
#        175581
#
# Disc length: 2525 seconds
#
# Revision: 0
# Processed by: cddbd v1.5.2PL0 Copyright (c) Steve Scherf et al.
# Submitted via: ExactAudioCopy v1.0b1
#
DISCID=b209db0e
DTITLE=Johnny Gimble - Johnny Gimble - Cotton-Eyed Joe (Texas Dance Fa
DTITLE=vorites)
DYEAR=1999
DGENRE=Country
TTITLE0=Cotton-Eyed Joe (No Calls)
TTITLE1=Texas Schottische
TTITLE2=Faded Love - Maiden's Prayer Medley
TTITLE3=San Antonio Rose
TTITLE4=I'm So Lonesome I Could Cry
TTITLE5=Steel Guitar Rag
TTITLE6=Night Life
TTITLE7=Cotton-Eyed Joe (With Calls)
TTITLE8=Jole' Blon Waltz
TTITLE9=Lone Star Polka
TTITLE10=Today I Started Loving You Again
TTITLE11=Orange Blossom Special
TTITLE12=I'd Be A Legend In My Time
TTITLE13=West Texas Waltz
EXTD=
EXTT0=
EXTT1=
EXTT2=
EXTT3=
EXTT4=
EXTT5=
EXTT6=
EXTT7=
EXTT8=
EXTT9=
EXTT10=
EXTT11=
EXTT12=
EXTT13=
PLAYORDER=
